<mxfile host="app.diagrams.net" agent="Mozilla/5.0 (Windows NT 10.0; Win64; x64) AppleWebKit/537.36 (KHTML, like Gecko) Chrome/137.0.0.0 Safari/537.36" version="27.1.4">
  <diagram name="PÃ¡gina-1" id="vkquCP0z_dac-a7bm4Fk">
    <mxGraphModel dx="2253" dy="777" grid="1" gridSize="10" guides="1" tooltips="1" connect="1" arrows="1" fold="1" page="1" pageScale="1" pageWidth="827" pageHeight="1169" math="0" shadow="0">
      <root>
        <mxCell id="0" />
        <mxCell id="1" parent="0" />
        <mxCell id="my01dFsc9o1oS7KOSe7T-1" value="1" style="endArrow=open;html=1;endSize=12;startArrow=diamondThin;startSize=14;startFill=0;edgeStyle=orthogonalEdgeStyle;align=left;verticalAlign=bottom;rounded=0;exitX=0;exitY=0.5;exitDx=0;exitDy=0;entryX=1;entryY=0.5;entryDx=0;entryDy=0;" edge="1" parent="1" source="my01dFsc9o1oS7KOSe7T-10" target="my01dFsc9o1oS7KOSe7T-7">
          <mxGeometry x="-1" y="3" relative="1" as="geometry">
            <mxPoint x="220" y="230" as="sourcePoint" />
            <mxPoint x="380" y="230" as="targetPoint" />
          </mxGeometry>
        </mxCell>
        <mxCell id="my01dFsc9o1oS7KOSe7T-2" value="1" style="endArrow=open;html=1;endSize=12;startArrow=diamondThin;startSize=14;startFill=1;edgeStyle=orthogonalEdgeStyle;align=left;verticalAlign=bottom;rounded=0;" edge="1" parent="1">
          <mxGeometry x="-1" y="3" relative="1" as="geometry">
            <mxPoint x="460" y="190" as="sourcePoint" />
            <mxPoint x="620" y="190" as="targetPoint" />
          </mxGeometry>
        </mxCell>
        <mxCell id="my01dFsc9o1oS7KOSe7T-3" value="Estudiante" style="swimlane;fontStyle=1;align=center;verticalAlign=top;childLayout=stackLayout;horizontal=1;startSize=26;horizontalStack=0;resizeParent=1;resizeParentMax=0;resizeLast=0;collapsible=1;marginBottom=0;whiteSpace=wrap;html=1;" vertex="1" parent="1">
          <mxGeometry x="50" y="300" width="180" height="138" as="geometry" />
        </mxCell>
        <mxCell id="my01dFsc9o1oS7KOSe7T-4" value="-id :String&lt;div&gt;&lt;br&gt;&lt;/div&gt;" style="text;strokeColor=none;fillColor=none;align=left;verticalAlign=top;spacingLeft=4;spacingRight=4;overflow=hidden;rotatable=0;points=[[0,0.5],[1,0.5]];portConstraint=eastwest;whiteSpace=wrap;html=1;" vertex="1" parent="my01dFsc9o1oS7KOSe7T-3">
          <mxGeometry y="26" width="180" height="26" as="geometry" />
        </mxCell>
        <mxCell id="my01dFsc9o1oS7KOSe7T-7" value="&lt;div&gt;-nombre :String&lt;/div&gt;" style="text;strokeColor=none;fillColor=none;align=left;verticalAlign=top;spacingLeft=4;spacingRight=4;overflow=hidden;rotatable=0;points=[[0,0.5],[1,0.5]];portConstraint=eastwest;whiteSpace=wrap;html=1;" vertex="1" parent="my01dFsc9o1oS7KOSe7T-3">
          <mxGeometry y="52" width="180" height="26" as="geometry" />
        </mxCell>
        <mxCell id="my01dFsc9o1oS7KOSe7T-8" value="&lt;div&gt;-edad:int&lt;/div&gt;" style="text;strokeColor=none;fillColor=none;align=left;verticalAlign=top;spacingLeft=4;spacingRight=4;overflow=hidden;rotatable=0;points=[[0,0.5],[1,0.5]];portConstraint=eastwest;whiteSpace=wrap;html=1;" vertex="1" parent="my01dFsc9o1oS7KOSe7T-3">
          <mxGeometry y="78" width="180" height="26" as="geometry" />
        </mxCell>
        <mxCell id="my01dFsc9o1oS7KOSe7T-5" value="" style="line;strokeWidth=1;fillColor=none;align=left;verticalAlign=middle;spacingTop=-1;spacingLeft=3;spacingRight=3;rotatable=0;labelPosition=right;points=[];portConstraint=eastwest;strokeColor=inherit;" vertex="1" parent="my01dFsc9o1oS7KOSe7T-3">
          <mxGeometry y="104" width="180" height="8" as="geometry" />
        </mxCell>
        <mxCell id="my01dFsc9o1oS7KOSe7T-6" value="+Estidante:(id.nombre,edad)" style="text;strokeColor=none;fillColor=none;align=left;verticalAlign=top;spacingLeft=4;spacingRight=4;overflow=hidden;rotatable=0;points=[[0,0.5],[1,0.5]];portConstraint=eastwest;whiteSpace=wrap;html=1;" vertex="1" parent="my01dFsc9o1oS7KOSe7T-3">
          <mxGeometry y="112" width="180" height="26" as="geometry" />
        </mxCell>
        <mxCell id="my01dFsc9o1oS7KOSe7T-10" value="Salon" style="html=1;whiteSpace=wrap;" vertex="1" parent="1">
          <mxGeometry x="520" y="290" width="110" height="50" as="geometry" />
        </mxCell>
        <mxCell id="my01dFsc9o1oS7KOSe7T-11" value="EjemploColeccion" style="swimlane;fontStyle=1;align=center;verticalAlign=top;childLayout=stackLayout;horizontal=1;startSize=26;horizontalStack=0;resizeParent=1;resizeParentMax=0;resizeLast=0;collapsible=1;marginBottom=0;whiteSpace=wrap;html=1;" vertex="1" parent="1">
          <mxGeometry x="80" y="550" width="160" height="86" as="geometry" />
        </mxCell>
        <mxCell id="my01dFsc9o1oS7KOSe7T-12" value="+ field: type" style="text;strokeColor=none;fillColor=none;align=left;verticalAlign=top;spacingLeft=4;spacingRight=4;overflow=hidden;rotatable=0;points=[[0,0.5],[1,0.5]];portConstraint=eastwest;whiteSpace=wrap;html=1;" vertex="1" parent="my01dFsc9o1oS7KOSe7T-11">
          <mxGeometry y="26" width="160" height="26" as="geometry" />
        </mxCell>
        <mxCell id="my01dFsc9o1oS7KOSe7T-13" value="" style="line;strokeWidth=1;fillColor=none;align=left;verticalAlign=middle;spacingTop=-1;spacingLeft=3;spacingRight=3;rotatable=0;labelPosition=right;points=[];portConstraint=eastwest;strokeColor=inherit;" vertex="1" parent="my01dFsc9o1oS7KOSe7T-11">
          <mxGeometry y="52" width="160" height="8" as="geometry" />
        </mxCell>
        <mxCell id="my01dFsc9o1oS7KOSe7T-14" value="+ method(type): type" style="text;strokeColor=none;fillColor=none;align=left;verticalAlign=top;spacingLeft=4;spacingRight=4;overflow=hidden;rotatable=0;points=[[0,0.5],[1,0.5]];portConstraint=eastwest;whiteSpace=wrap;html=1;" vertex="1" parent="my01dFsc9o1oS7KOSe7T-11">
          <mxGeometry y="60" width="160" height="26" as="geometry" />
        </mxCell>
        <mxCell id="my01dFsc9o1oS7KOSe7T-15" value="Use" style="endArrow=open;endSize=12;dashed=1;html=1;rounded=0;exitX=0.369;exitY=0.012;exitDx=0;exitDy=0;exitPerimeter=0;entryX=0.609;entryY=1.02;entryDx=0;entryDy=0;entryPerimeter=0;" edge="1" parent="1" source="my01dFsc9o1oS7KOSe7T-11" target="my01dFsc9o1oS7KOSe7T-10">
          <mxGeometry width="160" relative="1" as="geometry">
            <mxPoint x="290" y="480" as="sourcePoint" />
            <mxPoint x="450" y="480" as="targetPoint" />
          </mxGeometry>
        </mxCell>
        <mxCell id="my01dFsc9o1oS7KOSe7T-16" value="&amp;lt;abstract&amp;gt;&lt;div&gt;Persona&lt;/div&gt;" style="swimlane;fontStyle=1;align=center;verticalAlign=top;childLayout=stackLayout;horizontal=1;startSize=40;horizontalStack=0;resizeParent=1;resizeParentMax=0;resizeLast=0;collapsible=1;marginBottom=0;whiteSpace=wrap;html=1;" vertex="1" parent="1">
          <mxGeometry x="-740" y="80" width="180" height="230" as="geometry" />
        </mxCell>
        <mxCell id="my01dFsc9o1oS7KOSe7T-17" value="&lt;div&gt;+dni:int&lt;/div&gt;" style="text;strokeColor=none;fillColor=none;align=left;verticalAlign=top;spacingLeft=4;spacingRight=4;overflow=hidden;rotatable=0;points=[[0,0.5],[1,0.5]];portConstraint=eastwest;whiteSpace=wrap;html=1;" vertex="1" parent="my01dFsc9o1oS7KOSe7T-16">
          <mxGeometry y="40" width="180" height="26" as="geometry" />
        </mxCell>
        <mxCell id="my01dFsc9o1oS7KOSe7T-18" value="&lt;div&gt;-nombre :String&lt;/div&gt;" style="text;strokeColor=none;fillColor=none;align=left;verticalAlign=top;spacingLeft=4;spacingRight=4;overflow=hidden;rotatable=0;points=[[0,0.5],[1,0.5]];portConstraint=eastwest;whiteSpace=wrap;html=1;" vertex="1" parent="my01dFsc9o1oS7KOSe7T-16">
          <mxGeometry y="66" width="180" height="26" as="geometry" />
        </mxCell>
        <mxCell id="my01dFsc9o1oS7KOSe7T-19" value="&lt;div&gt;-genero:String&lt;/div&gt;" style="text;strokeColor=none;fillColor=none;align=left;verticalAlign=top;spacingLeft=4;spacingRight=4;overflow=hidden;rotatable=0;points=[[0,0.5],[1,0.5]];portConstraint=eastwest;whiteSpace=wrap;html=1;" vertex="1" parent="my01dFsc9o1oS7KOSe7T-16">
          <mxGeometry y="92" width="180" height="26" as="geometry" />
        </mxCell>
        <mxCell id="my01dFsc9o1oS7KOSe7T-20" value="" style="line;strokeWidth=1;fillColor=none;align=left;verticalAlign=middle;spacingTop=-1;spacingLeft=3;spacingRight=3;rotatable=0;labelPosition=right;points=[];portConstraint=eastwest;strokeColor=inherit;" vertex="1" parent="my01dFsc9o1oS7KOSe7T-16">
          <mxGeometry y="118" width="180" height="8" as="geometry" />
        </mxCell>
        <mxCell id="my01dFsc9o1oS7KOSe7T-46" value="+Persona()" style="text;strokeColor=none;fillColor=none;align=left;verticalAlign=top;spacingLeft=4;spacingRight=4;overflow=hidden;rotatable=0;points=[[0,0.5],[1,0.5]];portConstraint=eastwest;whiteSpace=wrap;html=1;" vertex="1" parent="my01dFsc9o1oS7KOSe7T-16">
          <mxGeometry y="126" width="180" height="26" as="geometry" />
        </mxCell>
        <mxCell id="my01dFsc9o1oS7KOSe7T-51" value="+Persona(dni,nombre,genero)" style="text;strokeColor=none;fillColor=none;align=left;verticalAlign=top;spacingLeft=4;spacingRight=4;overflow=hidden;rotatable=0;points=[[0,0.5],[1,0.5]];portConstraint=eastwest;whiteSpace=wrap;html=1;" vertex="1" parent="my01dFsc9o1oS7KOSe7T-16">
          <mxGeometry y="152" width="180" height="26" as="geometry" />
        </mxCell>
        <mxCell id="my01dFsc9o1oS7KOSe7T-50" value="@+toString():String" style="text;strokeColor=none;fillColor=none;align=left;verticalAlign=top;spacingLeft=4;spacingRight=4;overflow=hidden;rotatable=0;points=[[0,0.5],[1,0.5]];portConstraint=eastwest;whiteSpace=wrap;html=1;" vertex="1" parent="my01dFsc9o1oS7KOSe7T-16">
          <mxGeometry y="178" width="180" height="26" as="geometry" />
        </mxCell>
        <mxCell id="my01dFsc9o1oS7KOSe7T-52" value="+//getters,setter" style="text;strokeColor=none;fillColor=none;align=left;verticalAlign=top;spacingLeft=4;spacingRight=4;overflow=hidden;rotatable=0;points=[[0,0.5],[1,0.5]];portConstraint=eastwest;whiteSpace=wrap;html=1;" vertex="1" parent="my01dFsc9o1oS7KOSe7T-16">
          <mxGeometry y="204" width="180" height="26" as="geometry" />
        </mxCell>
        <mxCell id="my01dFsc9o1oS7KOSe7T-22" value="Piloto" style="swimlane;fontStyle=1;align=center;verticalAlign=top;childLayout=stackLayout;horizontal=1;startSize=26;horizontalStack=0;resizeParent=1;resizeParentMax=0;resizeLast=0;collapsible=1;marginBottom=0;whiteSpace=wrap;html=1;" vertex="1" parent="1">
          <mxGeometry x="-600" y="380" width="180" height="242" as="geometry" />
        </mxCell>
        <mxCell id="my01dFsc9o1oS7KOSe7T-23" value="&lt;div&gt;-nombreEquipo:String&lt;/div&gt;" style="text;strokeColor=none;fillColor=none;align=left;verticalAlign=top;spacingLeft=4;spacingRight=4;overflow=hidden;rotatable=0;points=[[0,0.5],[1,0.5]];portConstraint=eastwest;whiteSpace=wrap;html=1;" vertex="1" parent="my01dFsc9o1oS7KOSe7T-22">
          <mxGeometry y="26" width="180" height="26" as="geometry" />
        </mxCell>
        <mxCell id="my01dFsc9o1oS7KOSe7T-24" value="&lt;div&gt;-codLicencia:String&lt;/div&gt;" style="text;strokeColor=none;fillColor=none;align=left;verticalAlign=top;spacingLeft=4;spacingRight=4;overflow=hidden;rotatable=0;points=[[0,0.5],[1,0.5]];portConstraint=eastwest;whiteSpace=wrap;html=1;" vertex="1" parent="my01dFsc9o1oS7KOSe7T-22">
          <mxGeometry y="52" width="180" height="26" as="geometry" />
        </mxCell>
        <mxCell id="my01dFsc9o1oS7KOSe7T-25" value="&lt;div&gt;-aniosExpe:int&lt;/div&gt;" style="text;strokeColor=none;fillColor=none;align=left;verticalAlign=top;spacingLeft=4;spacingRight=4;overflow=hidden;rotatable=0;points=[[0,0.5],[1,0.5]];portConstraint=eastwest;whiteSpace=wrap;html=1;" vertex="1" parent="my01dFsc9o1oS7KOSe7T-22">
          <mxGeometry y="78" width="180" height="26" as="geometry" />
        </mxCell>
        <mxCell id="my01dFsc9o1oS7KOSe7T-63" value="&lt;div&gt;-algunVehiculo:Vehiculo&lt;/div&gt;" style="text;strokeColor=none;fillColor=none;align=left;verticalAlign=top;spacingLeft=4;spacingRight=4;overflow=hidden;rotatable=0;points=[[0,0.5],[1,0.5]];portConstraint=eastwest;whiteSpace=wrap;html=1;" vertex="1" parent="my01dFsc9o1oS7KOSe7T-22">
          <mxGeometry y="104" width="180" height="26" as="geometry" />
        </mxCell>
        <mxCell id="my01dFsc9o1oS7KOSe7T-26" value="" style="line;strokeWidth=1;fillColor=none;align=left;verticalAlign=middle;spacingTop=-1;spacingLeft=3;spacingRight=3;rotatable=0;labelPosition=right;points=[];portConstraint=eastwest;strokeColor=inherit;" vertex="1" parent="my01dFsc9o1oS7KOSe7T-22">
          <mxGeometry y="130" width="180" height="8" as="geometry" />
        </mxCell>
        <mxCell id="my01dFsc9o1oS7KOSe7T-27" value="+Piloto()" style="text;strokeColor=none;fillColor=none;align=left;verticalAlign=top;spacingLeft=4;spacingRight=4;overflow=hidden;rotatable=0;points=[[0,0.5],[1,0.5]];portConstraint=eastwest;whiteSpace=wrap;html=1;" vertex="1" parent="my01dFsc9o1oS7KOSe7T-22">
          <mxGeometry y="138" width="180" height="26" as="geometry" />
        </mxCell>
        <mxCell id="my01dFsc9o1oS7KOSe7T-56" value="+Piloto(equipo,codigo,anios)" style="text;strokeColor=none;fillColor=none;align=left;verticalAlign=top;spacingLeft=4;spacingRight=4;overflow=hidden;rotatable=0;points=[[0,0.5],[1,0.5]];portConstraint=eastwest;whiteSpace=wrap;html=1;" vertex="1" parent="my01dFsc9o1oS7KOSe7T-22">
          <mxGeometry y="164" width="180" height="26" as="geometry" />
        </mxCell>
        <mxCell id="my01dFsc9o1oS7KOSe7T-57" value="+//getters(),setter()" style="text;strokeColor=none;fillColor=none;align=left;verticalAlign=top;spacingLeft=4;spacingRight=4;overflow=hidden;rotatable=0;points=[[0,0.5],[1,0.5]];portConstraint=eastwest;whiteSpace=wrap;html=1;" vertex="1" parent="my01dFsc9o1oS7KOSe7T-22">
          <mxGeometry y="190" width="180" height="26" as="geometry" />
        </mxCell>
        <mxCell id="my01dFsc9o1oS7KOSe7T-58" value="@+toString():String" style="text;strokeColor=none;fillColor=none;align=left;verticalAlign=top;spacingLeft=4;spacingRight=4;overflow=hidden;rotatable=0;points=[[0,0.5],[1,0.5]];portConstraint=eastwest;whiteSpace=wrap;html=1;" vertex="1" parent="my01dFsc9o1oS7KOSe7T-22">
          <mxGeometry y="216" width="180" height="26" as="geometry" />
        </mxCell>
        <mxCell id="my01dFsc9o1oS7KOSe7T-28" value="Vehiculo" style="swimlane;fontStyle=1;align=center;verticalAlign=top;childLayout=stackLayout;horizontal=1;startSize=26;horizontalStack=0;resizeParent=1;resizeParentMax=0;resizeLast=0;collapsible=1;marginBottom=0;whiteSpace=wrap;html=1;" vertex="1" parent="1">
          <mxGeometry x="-440" y="74" width="180" height="216" as="geometry" />
        </mxCell>
        <mxCell id="my01dFsc9o1oS7KOSe7T-29" value="&lt;div&gt;-marca:String&lt;/div&gt;" style="text;strokeColor=none;fillColor=none;align=left;verticalAlign=top;spacingLeft=4;spacingRight=4;overflow=hidden;rotatable=0;points=[[0,0.5],[1,0.5]];portConstraint=eastwest;whiteSpace=wrap;html=1;" vertex="1" parent="my01dFsc9o1oS7KOSe7T-28">
          <mxGeometry y="26" width="180" height="26" as="geometry" />
        </mxCell>
        <mxCell id="my01dFsc9o1oS7KOSe7T-30" value="&lt;div&gt;-modelo:String&lt;/div&gt;" style="text;strokeColor=none;fillColor=none;align=left;verticalAlign=top;spacingLeft=4;spacingRight=4;overflow=hidden;rotatable=0;points=[[0,0.5],[1,0.5]];portConstraint=eastwest;whiteSpace=wrap;html=1;" vertex="1" parent="my01dFsc9o1oS7KOSe7T-28">
          <mxGeometry y="52" width="180" height="26" as="geometry" />
        </mxCell>
        <mxCell id="my01dFsc9o1oS7KOSe7T-31" value="&lt;div&gt;-tipo:String&lt;/div&gt;" style="text;strokeColor=none;fillColor=none;align=left;verticalAlign=top;spacingLeft=4;spacingRight=4;overflow=hidden;rotatable=0;points=[[0,0.5],[1,0.5]];portConstraint=eastwest;whiteSpace=wrap;html=1;" vertex="1" parent="my01dFsc9o1oS7KOSe7T-28">
          <mxGeometry y="78" width="180" height="26" as="geometry" />
        </mxCell>
        <mxCell id="my01dFsc9o1oS7KOSe7T-32" value="" style="line;strokeWidth=1;fillColor=none;align=left;verticalAlign=middle;spacingTop=-1;spacingLeft=3;spacingRight=3;rotatable=0;labelPosition=right;points=[];portConstraint=eastwest;strokeColor=inherit;" vertex="1" parent="my01dFsc9o1oS7KOSe7T-28">
          <mxGeometry y="104" width="180" height="8" as="geometry" />
        </mxCell>
        <mxCell id="my01dFsc9o1oS7KOSe7T-33" value="+Vehiculo()" style="text;strokeColor=none;fillColor=none;align=left;verticalAlign=top;spacingLeft=4;spacingRight=4;overflow=hidden;rotatable=0;points=[[0,0.5],[1,0.5]];portConstraint=eastwest;whiteSpace=wrap;html=1;" vertex="1" parent="my01dFsc9o1oS7KOSe7T-28">
          <mxGeometry y="112" width="180" height="26" as="geometry" />
        </mxCell>
        <mxCell id="my01dFsc9o1oS7KOSe7T-53" value="+Vehiculo(marca,modelo,tipo)" style="text;strokeColor=none;fillColor=none;align=left;verticalAlign=top;spacingLeft=4;spacingRight=4;overflow=hidden;rotatable=0;points=[[0,0.5],[1,0.5]];portConstraint=eastwest;whiteSpace=wrap;html=1;" vertex="1" parent="my01dFsc9o1oS7KOSe7T-28">
          <mxGeometry y="138" width="180" height="26" as="geometry" />
        </mxCell>
        <mxCell id="my01dFsc9o1oS7KOSe7T-54" value="+//getters(),setter()" style="text;strokeColor=none;fillColor=none;align=left;verticalAlign=top;spacingLeft=4;spacingRight=4;overflow=hidden;rotatable=0;points=[[0,0.5],[1,0.5]];portConstraint=eastwest;whiteSpace=wrap;html=1;" vertex="1" parent="my01dFsc9o1oS7KOSe7T-28">
          <mxGeometry y="164" width="180" height="26" as="geometry" />
        </mxCell>
        <mxCell id="my01dFsc9o1oS7KOSe7T-55" value="@+toString():String" style="text;strokeColor=none;fillColor=none;align=left;verticalAlign=top;spacingLeft=4;spacingRight=4;overflow=hidden;rotatable=0;points=[[0,0.5],[1,0.5]];portConstraint=eastwest;whiteSpace=wrap;html=1;" vertex="1" parent="my01dFsc9o1oS7KOSe7T-28">
          <mxGeometry y="190" width="180" height="26" as="geometry" />
        </mxCell>
        <mxCell id="my01dFsc9o1oS7KOSe7T-40" value="Ejecutor" style="swimlane;fontStyle=1;align=center;verticalAlign=top;childLayout=stackLayout;horizontal=1;startSize=26;horizontalStack=0;resizeParent=1;resizeParentMax=0;resizeLast=0;collapsible=1;marginBottom=0;whiteSpace=wrap;html=1;" vertex="1" parent="1">
          <mxGeometry x="-320" y="610" width="180" height="60" as="geometry" />
        </mxCell>
        <mxCell id="my01dFsc9o1oS7KOSe7T-41" value="&lt;div&gt;+main([])&lt;/div&gt;" style="text;strokeColor=none;fillColor=none;align=left;verticalAlign=top;spacingLeft=4;spacingRight=4;overflow=hidden;rotatable=0;points=[[0,0.5],[1,0.5]];portConstraint=eastwest;whiteSpace=wrap;html=1;" vertex="1" parent="my01dFsc9o1oS7KOSe7T-40">
          <mxGeometry y="26" width="180" height="26" as="geometry" />
        </mxCell>
        <mxCell id="my01dFsc9o1oS7KOSe7T-44" value="" style="line;strokeWidth=1;fillColor=none;align=left;verticalAlign=middle;spacingTop=-1;spacingLeft=3;spacingRight=3;rotatable=0;labelPosition=right;points=[];portConstraint=eastwest;strokeColor=inherit;" vertex="1" parent="my01dFsc9o1oS7KOSe7T-40">
          <mxGeometry y="52" width="180" height="8" as="geometry" />
        </mxCell>
        <mxCell id="my01dFsc9o1oS7KOSe7T-59" value="Extends" style="endArrow=block;endSize=16;endFill=0;html=1;rounded=0;" edge="1" parent="1" source="my01dFsc9o1oS7KOSe7T-22" target="my01dFsc9o1oS7KOSe7T-16">
          <mxGeometry width="160" relative="1" as="geometry">
            <mxPoint x="-320" y="350" as="sourcePoint" />
            <mxPoint x="-160" y="350" as="targetPoint" />
          </mxGeometry>
        </mxCell>
        <mxCell id="my01dFsc9o1oS7KOSe7T-60" value="" style="endArrow=block;endFill=1;html=1;edgeStyle=orthogonalEdgeStyle;align=left;verticalAlign=top;rounded=0;exitX=0.561;exitY=0.005;exitDx=0;exitDy=0;exitPerimeter=0;" edge="1" parent="1" source="my01dFsc9o1oS7KOSe7T-22" target="my01dFsc9o1oS7KOSe7T-28">
          <mxGeometry x="-1" relative="1" as="geometry">
            <mxPoint x="-320" y="350" as="sourcePoint" />
            <mxPoint x="-160" y="350" as="targetPoint" />
          </mxGeometry>
        </mxCell>
        <mxCell id="my01dFsc9o1oS7KOSe7T-61" value="1" style="edgeLabel;resizable=0;html=1;align=left;verticalAlign=bottom;" connectable="0" vertex="1" parent="my01dFsc9o1oS7KOSe7T-60">
          <mxGeometry x="-1" relative="1" as="geometry" />
        </mxCell>
        <mxCell id="my01dFsc9o1oS7KOSe7T-62" value="manejar()" style="edgeLabel;html=1;align=center;verticalAlign=middle;resizable=0;points=[];" vertex="1" connectable="0" parent="my01dFsc9o1oS7KOSe7T-60">
          <mxGeometry x="-0.0413" relative="1" as="geometry">
            <mxPoint as="offset" />
          </mxGeometry>
        </mxCell>
        <mxCell id="my01dFsc9o1oS7KOSe7T-64" value="&lt;span style=&quot;font-weight: 700;&quot;&gt;&lt;u&gt;EquipoCompetencia&lt;/u&gt;&lt;/span&gt;" style="html=1;whiteSpace=wrap;" vertex="1" parent="1">
          <mxGeometry x="-210" y="388" width="120" height="50" as="geometry" />
        </mxCell>
        <mxCell id="my01dFsc9o1oS7KOSe7T-65" value="Use" style="endArrow=open;endSize=12;dashed=1;html=1;rounded=0;entryX=0.5;entryY=1;entryDx=0;entryDy=0;" edge="1" parent="1" source="my01dFsc9o1oS7KOSe7T-40" target="my01dFsc9o1oS7KOSe7T-64">
          <mxGeometry width="160" relative="1" as="geometry">
            <mxPoint x="-200" y="510" as="sourcePoint" />
            <mxPoint x="-180" y="520" as="targetPoint" />
          </mxGeometry>
        </mxCell>
      </root>
    </mxGraphModel>
  </diagram>
</mxfile>
